<?xml version="1.0" standalone="no"?>
<!DOCTYPE svg PUBLIC "-//W3C//DTD SVG 20010904//EN"
 "http://www.w3.org/TR/2001/REC-SVG-20010904/DTD/svg10.dtd">
<svg version="1.0" xmlns="http://www.w3.org/2000/svg"
 width="260.000000pt" height="260.000000pt" viewBox="0 0 260.000000 260.000000"
 preserveAspectRatio="xMidYMid meet">
<metadata>
Created by potrace 1.14, written by Peter Selinger 2001-2017
</metadata>
<g transform="translate(0.000000,260.000000) scale(0.100000,-0.100000)"
fill="#000000" stroke="none">
<path d="M600 2514 c-80 -46 -160 -92 -177 -101 l-33 -17 0 -208 0 -207 98
-57 c53 -32 133 -78 178 -104 l81 -48 179 104 180 104 -1 207 0 207 -178 103
c-98 57 -179 103 -180 103 -1 0 -67 -39 -147 -86z m300 -141 l85 -49 0 -138 0
-139 -116 -67 -116 -68 -114 66 c-63 36 -116 69 -119 73 -9 13 -3 273 6 276 5
2 58 32 119 68 l109 64 31 -19 c16 -10 68 -40 115 -67z"/>
<path d="M1670 2496 l-175 -103 0 -202 c-1 -111 2 -205 5 -210 3 -4 83 -53
179 -108 l174 -101 176 102 176 102 3 210 2 209 -61 35 c-34 19 -74 42 -88 50
-118 69 -209 120 -212 119 -2 0 -83 -47 -179 -103z m363 -138 c54 -31 57 -35
58 -73 3 -126 -1 -240 -8 -242 -4 -2 -57 -32 -117 -67 l-109 -64 -81 48 c-44
26 -97 56 -116 67 l-35 20 0 138 0 138 115 67 115 67 60 -33 c33 -19 86 -49
118 -66z"/>
<path d="M1050 1819 c-135 -78 -261 -152 -280 -164 l-35 -22 0 -326 c0 -179 3
-328 5 -330 6 -5 516 -300 546 -315 21 -11 71 15 409 213 50 29 110 64 134 78
l45 24 1 309 c0 170 -2 320 -5 333 -4 14 -21 33 -41 44 -19 11 -90 52 -159 92
-69 40 -141 82 -160 93 -19 11 -71 40 -115 66 -44 25 -85 46 -90 46 -6 0 -120
-64 -255 -141z m450 -187 l185 -108 1 -217 2 -217 -62 -37 c-33 -20 -108 -63
-166 -96 -58 -33 -114 -66 -125 -73 -18 -12 -36 -5 -171 74 -82 48 -166 96
-187 107 -32 17 -37 25 -38 55 0 19 -1 118 -1 218 l-1 184 184 108 c101 59
186 108 189 109 3 0 88 -48 190 -107z"/>
<path d="M570 725 l-175 -102 -2 -209 -3 -209 179 -103 178 -102 124 71 c68
39 144 83 169 96 25 14 49 30 55 35 6 5 10 91 10 214 l1 205 -176 101 c-96 55
-177 102 -180 103 -3 1 -84 -44 -180 -100z m306 -111 l115 -66 -3 -136 -3
-137 -60 -35 c-33 -20 -85 -51 -116 -68 l-56 -32 -114 66 c-62 36 -116 67
-118 70 -9 9 -6 258 4 270 11 14 215 134 228 134 4 0 59 -30 123 -66z"/>
<path d="M1679 727 c-96 -55 -176 -104 -179 -108 -3 -4 -5 -99 -5 -210 l0
-202 125 -74 c69 -40 132 -76 140 -80 8 -4 32 -17 53 -30 l38 -24 180 103 179
103 -3 209 -2 210 -176 102 -176 101 -174 -100z m282 -102 c51 -30 101 -57
111 -61 20 -6 19 -3 20 -177 1 -59 -1 -109 -3 -112 -3 -2 -55 -33 -117 -69
l-113 -66 -44 24 c-24 14 -77 44 -119 68 l-76 43 0 135 0 136 113 67 c61 36
117 66 123 67 7 0 54 -25 105 -55z"/>
</g>
</svg>
