<?xml version="1.0" encoding="utf-8"?>
<!-- Generator: Adobe Illustrator 26.0.2, SVG Export Plug-In . SVG Version: 6.00 Build 0)  -->
<svg version="1.1" id="Layer_1" xmlns="http://www.w3.org/2000/svg" xmlns:xlink="http://www.w3.org/1999/xlink" x="0px" y="0px"
	 viewBox="0 0 576 576" style="enable-background:new 0 0 576 576;" xml:space="preserve">
<style type="text/css">
	.st0{fill:#754C29;}
	.st1{fill:#EFBC32;}
</style>
<path class="st0" d="M81.79,301.87c-1.46,0-2.32-0.86-2.32-2.32v-43.47c0-1.46,0.86-2.26,2.32-2.26h8.89
	c8.63,0,12.48,3.45,12.48,10.55v3.45c0,4.98-1.86,8.23-6.04,9.63v0.6c4.18,1.46,6.04,4.71,6.04,9.62v3.58
	c0,7.17-3.85,10.62-12.48,10.62H81.79z M90.69,274.46c2.99,0,4.05-1.59,4.05-4.05v-6.04c0-2.39-1.06-4.05-4.05-4.05H87.9v14.14
	H90.69z M90.69,295.36c2.99,0,4.05-1.66,4.05-4.11v-6.17c0-2.46-1.06-4.12-4.05-4.12H87.9v14.4H90.69z"/>
<path class="st0" d="M153.21,253.81c1.46,0,2.32,0.8,2.32,2.26v1.92c0,1.46-0.86,2.32-2.32,2.32h-10.02v14.27h7.5
	c1.46,0,2.32,0.8,2.32,2.26v1.92c0,1.46-0.86,2.32-2.32,2.32h-7.5v14.27h10.02c1.46,0,2.32,0.8,2.32,2.26v1.92
	c0,1.46-0.86,2.32-2.32,2.32h-16.13c-1.46,0-2.32-0.86-2.32-2.32v-43.47c0-1.46,0.86-2.26,2.32-2.26H153.21z"/>
<path class="st0" d="M203.85,253.81c1.46,0,2.32,0.8,2.32,2.26v1.92c0,1.46-0.86,2.32-2.32,2.32h-10.02v14.27h7.5
	c1.46,0,2.32,0.8,2.32,2.26v1.92c0,1.46-0.86,2.32-2.32,2.32h-7.5v14.27h10.02c1.46,0,2.32,0.8,2.32,2.26v1.92
	c0,1.46-0.86,2.32-2.32,2.32h-16.13c-1.46,0-2.32-0.86-2.32-2.32v-43.47c0-1.46,0.86-2.26,2.32-2.26H203.85z"/>
<path class="st0" d="M326.5,274.59h7.5v-18.52c0-1.46,0.86-2.26,2.32-2.26h3.78c1.46,0,2.32,0.8,2.32,2.26v43.47
	c0,1.46-0.86,2.32-2.32,2.32h-3.78c-1.46,0-2.32-0.86-2.32-2.32v-18.45h-7.5v18.45c0,1.46-0.86,2.32-2.32,2.32h-3.78
	c-1.46,0-2.32-0.86-2.32-2.32v-43.47c0-1.46,0.86-2.26,2.32-2.26h3.78c1.46,0,2.32,0.8,2.32,2.26V274.59z"/>
<path class="st0" d="M382.72,299.54c0,1.46-0.86,2.32-2.32,2.32h-3.78c-1.46,0-2.32-0.86-2.32-2.32v-43.47
	c0-1.46,0.86-2.26,2.32-2.26h3.78c1.46,0,2.32,0.8,2.32,2.26V299.54z"/>
<path class="st0" d="M427.65,279.96l3.45-24.09c0.13-1.53,1.13-2.06,2.26-2.06h3.58c1.66,0,2.46,1.13,2.19,2.79l-6.57,43.07
	c-0.2,1.59-1,2.19-2.32,2.19h-8.63c-1.33,0-2.19-0.6-2.39-2.19l-6.57-43.07c-0.27-1.66,0.6-2.79,2.19-2.79h3.58
	c1.13,0,2.12,0.46,2.32,2.06l3.39,24.09l1.46,16.13"/>
<path class="st0" d="M487.52,253.81c1.46,0,2.32,0.8,2.32,2.26v1.92c0,1.46-0.86,2.32-2.32,2.32H477.5v14.27h7.5
	c1.46,0,2.32,0.8,2.32,2.26v1.92c0,1.46-0.86,2.32-2.32,2.32h-7.5v14.27h10.02c1.46,0,2.32,0.8,2.32,2.26v1.92
	c0,1.46-0.86,2.32-2.32,2.32h-16.13c-1.46,0-2.32-0.86-2.32-2.32v-43.47c0-1.46,0.86-2.26,2.32-2.26H487.52z"/>
<path class="st1" d="M261.32,236.36l-35.06,20.24v40.48l35.06,20.24l35.06-20.24V256.6L261.32,236.36z M284.92,290.31l-23.12,13.35
	l-23.12-13.35v-26.7l23.12-13.35l23.12,13.35V290.31z"/>
<path class="st1" d="M226.97,197.33l-22.04,12.72v25.45l22.04,12.72l22.04-12.72v-25.45L226.97,197.33z M241.8,231.25l-14.54,8.39
	l-14.54-8.39v-16.78l14.54-8.39l14.54,8.39V231.25z"/>
<path class="st1" d="M295.08,197.33l-22.04,12.72v25.45l22.04,12.72l22.04-12.72v-25.45L295.08,197.33z M309.92,231.25l-14.54,8.39
	l-14.54-8.39v-16.78l14.54-8.39l14.54,8.39V231.25z"/>
<path class="st1" d="M226.97,306.4l-22.04,12.72v25.45l22.04,12.72l22.04-12.72v-25.45L226.97,306.4z M241.8,340.31l-14.54,8.39
	l-14.54-8.39v-16.78l14.54-8.39l14.54,8.39V340.31z"/>
<path class="st1" d="M295.08,306.4l-22.04,12.72v25.45l22.04,12.72l22.04-12.72v-25.45L295.08,306.4z M309.92,340.31l-14.54,8.39
	l-14.54-8.39v-16.78l14.54-8.39l14.54,8.39V340.31z"/>
</svg>
