<?xml version="1.0" encoding="UTF-8" standalone="no"?>
<svg
   xmlns:dc="http://purl.org/dc/elements/1.1/"
   xmlns:cc="http://creativecommons.org/ns#"
   xmlns:rdf="http://www.w3.org/1999/02/22-rdf-syntax-ns#"
   xmlns:svg="http://www.w3.org/2000/svg"
   xmlns="http://www.w3.org/2000/svg"
   xmlns:sodipodi="http://sodipodi.sourceforge.net/DTD/sodipodi-0.dtd"
   xmlns:inkscape="http://www.inkscape.org/namespaces/inkscape"
   inkscape:export-ydpi="156.039"
   inkscape:export-xdpi="156.039"
   inkscape:export-filename="C:\Users\zafer\Documents\GitHub\BeeHive\BeeHiveSite\images\BeeHiveLogoSimple.png"
   width="29.683603mm"
   height="42.32275mm"
   viewBox="0 0 29.683603 42.32275"
   version="1.1"
   id="svg8"
   inkscape:version="1.0 (4035a4fb49, 2020-05-01)"
   sodipodi:docname="BeeHiveLogoSimple.svg">
  <defs
     id="defs2" />
  <sodipodi:namedview
     id="base"
     pagecolor="#ffffff"
     bordercolor="#666666"
     borderopacity="1.0"
     inkscape:pageopacity="0.0"
     inkscape:pageshadow="2"
     inkscape:zoom="1.4"
     inkscape:cx="141.31482"
     inkscape:cy="-109.32772"
     inkscape:document-units="mm"
     inkscape:current-layer="g56"
     inkscape:document-rotation="0"
     showgrid="false"
     inkscape:window-width="2560"
     inkscape:window-height="1411"
     inkscape:window-x="-9"
     inkscape:window-y="-9"
     inkscape:window-maximized="1"
     fit-margin-top="0"
     fit-margin-left="0"
     fit-margin-right="0"
     fit-margin-bottom="0" />
  <metadata
     id="metadata5">
    <rdf:RDF>
      <cc:Work
         rdf:about="">
        <dc:format>image/svg+xml</dc:format>
        <dc:type
           rdf:resource="http://purl.org/dc/dcmitype/StillImage" />
        <dc:title />
      </cc:Work>
    </rdf:RDF>
  </metadata>
  <g
     inkscape:label="Layer 1"
     inkscape:groupmode="layer"
     id="layer1"
     transform="translate(-69.62038,-132.29696)">
    <g
       id="g56"
       transform="matrix(0.26458333,0,0,0.26458333,15.399318,80.08673)">
      <path
         id="path26"
         d="m 261.32,236.36 -35.06,20.24 v 40.48 l 35.06,20.24 35.06,-20.24 V 256.6 Z m 23.6,53.95 -23.12,13.35 -23.12,-13.35 v -26.7 l 23.12,-13.35 23.12,13.35 z"
         class="st1" />
      <path
         id="path28"
         d="m 226.97,197.33 -22.04,12.72 v 25.45 l 22.04,12.72 22.04,-12.72 v -25.45 z m 14.83,33.92 -14.54,8.39 -14.54,-8.39 v -16.78 l 14.54,-8.39 14.54,8.39 z"
         class="st1" />
      <path
         id="path30"
         d="m 295.08,197.33 -22.04,12.72 v 25.45 l 22.04,12.72 22.04,-12.72 v -25.45 z m 14.84,33.92 -14.54,8.39 -14.54,-8.39 v -16.78 l 14.54,-8.39 14.54,8.39 z"
         class="st1" />
      <path
         id="path32"
         d="m 226.97,306.4 -22.04,12.72 v 25.45 l 22.04,12.72 22.04,-12.72 v -25.45 z m 14.83,33.91 -14.54,8.39 -14.54,-8.39 v -16.78 l 14.54,-8.39 14.54,8.39 z"
         class="st1" />
      <path
         id="path34"
         d="m 295.08,306.4 -22.04,12.72 v 25.45 l 22.04,12.72 22.04,-12.72 v -25.45 z m 14.84,33.91 -14.54,8.39 -14.54,-8.39 v -16.78 l 14.54,-8.39 14.54,8.39 z"
         class="st1" />
    </g>
  </g>
  <style
     id="style10"
     type="text/css">
	.st0{fill:#754C29;}
	.st1{fill:#EFBC32;}
</style>
</svg>
